Patient4_TMGait_0pt5_02_left_30_GRF.mot
version=1
nRows=78
nColumns=19
inDegrees=no
endheader
time	F1x	F1y	F1z	M1x	M1y	M1z	F2x	F2y	F2z	M2x	M2y	M2z	EC1x	EC1y	EC1z	EC2x	EC2y	EC2z
38.44	-1.482	7.2344	8.6107	-2.6573	-7.0867	-1.3109	-14.8467	704.9338	-67.4047	268.3774	64.3915	667.521	-0.0592	0.0182	-0.0073	-0.0462	0.0165	0.9585
38.4533	-1.0394	5.3578	5.9731	-2.0109	-4.8648	-0.27567	-13.8203	715.1829	-64.1138	270.6616	61.931	670.2436	-0.0592	0.0182	-0.0073	-0.0462	0.0165	0.9585
38.4666	-0.67522	3.8041	3.6656	-1.4584	-2.9667	0.6122	-11.9386	725.1792	-60.8361	273.1687	58.9761	672.3302	-0.0592	0.0182	-0.0073	-0.0462	0.0165	0.9585
38.4799	-0.41739	2.6716	1.8475	-1.0421	-1.5009	1.3241	-9.2753	734.6823	-57.8672	275.9032	55.7743	673.8719	-0.0592	0.0182	-0.0073	-0.0462	0.0165	0.9585
38.4931	-0.26117	1.9418	0.56153	-0.76155	-0.48791	1.8615	-6.0136	743.68	-55.3805	278.8435	52.5557	675.0553	-0.0592	0.0182	-0.0073	-0.0462	0.0165	0.9585
38.5064	-0.18382	1.537	-0.26144	-0.59386	0.14315	2.2313	-2.3681	752.1551	-53.418	281.9095	49.4737	675.9779	-0.0592	0.0182	-0.0073	-0.0462	0.0165	0.9585
38.5197	-0.17687	1.3463	-0.70966	-0.50117	0.46537	2.4435	1.4313	759.9704	-51.9654	284.9545	46.6439	676.5932	-0.0592	0.0182	-0.0073	-0.0462	0.0165	0.9585
38.533	-0.20848	1.2365	-0.89411	-0.4404	0.57164	2.4677	5.1978	766.8481	-50.95	287.7826	44.1135	676.6959	-0.0592	0.0182	-0.0073	-0.0462	0.0165	0.9585
38.5463	-0.27457	1.0865	-0.89601	-0.36833	0.5219	2.2914	8.7763	772.418	-50.2829	290.1753	41.8992	675.9985	-0.0592	0.0182	-0.0073	-0.0462	0.0165	0.9585
38.5596	-0.34889	0.77566	-0.7942	-0.24271	0.38389	1.8544	12.0603	776.2706	-49.8349	291.9204	39.9569	674.1722	-0.0592	0.0182	-0.0073	-0.0462	0.0165	0.9585
38.5729	-0.42812	0.20801	-0.63748	-0.024718	0.19916	1.1059	14.9846	778.0584	-49.4886	292.8476	38.2329	670.9459	-0.0592	0.0182	-0.0073	-0.0462	0.0165	0.9585
38.5861	-0.49144	-0.69637	-0.47574	0.31834	0.021036	-0.018296	17.5216	777.5845	-49.1193	292.8581	36.6466	666.1761	-0.0592	0.0182	-0.0073	-0.0462	0.0165	0.9585
38.5994	-0.49992	-1.9858	-0.33411	0.8047	-0.11183	-1.5549	19.6762	774.8018	-48.6729	291.9196	35.1603	659.8268	-0.0592	0.0182	-0.0073	-0.0462	0.0165	0.9585
38.6127	-0.41411	-3.6254	-0.24735	1.4218	-0.15009	-3.4487	21.4872	769.8572	-48.146	290.0813	33.7539	652.0045	-0.0592	0.0182	-0.0073	-0.0462	0.0165	0.9585
38.626	-0.16127	-5.4743	-0.22913	2.1123	-0.054524	-5.546	23.0614	763.1567	-47.6043	287.4944	32.4356	643.0162	-0.0592	0.0182	-0.0073	-0.0462	0.0165	0.9585
38.6393	0.3204	-7.1901	-0.31313	2.7436	0.2331	-7.4737	24.5316	755.3517	-47.1251	284.4054	31.2076	633.3767	-0.0592	0.0182	-0.0073	-0.0462	0.0165	0.9585
38.6526	1.1156	-8.1744	-0.51448	3.0877	0.76125	-8.6025	26.0091	747.215	-46.8108	281.1063	30.1033	623.704	-0.0592	0.0182	-0.0073	-0.0462	0.0165	0.9585
38.6659	2.2751	-7.5085	-0.86256	2.7983	1.5837	-7.9612	27.5628	739.4903	-46.7427	277.8769	29.1565	614.5959	-0.0592	0.0182	-0.0073	-0.0462	0.0165	0.9585
38.6791	3.8056	-3.9286	-1.3722	1.4006	2.7186	-4.2164	29.2067	732.7114	-46.9893	274.9182	28.4163	606.4989	-0.0592	0.0182	-0.0073	-0.0462	0.0165	0.9585
38.6924	5.6217	4.1395	-2.0465	-1.697	4.1335	4.2936	30.8887	727.0404	-47.5677	272.2919	27.9178	599.575	-0.0592	0.0182	-0.0073	-0.0462	0.0165	0.9585
38.7057	7.4698	18.4389	-2.8373	-7.1456	5.6804	19.4205	32.5125	722.1674	-48.4547	269.8877	27.6867	593.6003	-0.0592	0.0182	-0.0073	-0.0462	0.0165	0.9585
38.719	8.8912	40.5567	-3.6398	-15.5356	7.0675	42.8496	33.9462	717.2947	-49.5496	267.4201	27.6993	587.9501	-0.0592	0.0182	-0.0073	-0.0462	0.0165	0.9585
38.7323	9.1291	71.4078	-4.2385	-27.1978	7.7728	75.5727	35.0562	711.2105	-50.676	264.4605	27.8708	581.6459	-0.0592	0.0182	-0.0073	-0.0462	0.0165	0.9585
38.7456	7.2052	110.4909	-4.3158	-41.9273	7.0842	117.1016	35.7238	702.4494	-51.5794	260.4987	28.0481	573.484	-0.0592	0.0182	-0.0073	-0.0462	0.0165	0.9585
38.7589	2.4503	155.3085	-3.469	-58.7638	4.3209	164.8465	35.87	689.5637	-51.9814	255.0387	28.0482	562.263	-0.0592	0.0182	-0.0073	-0.0462	0.0165	0.9585
38.7721	-4.3907	201.3169	-1.2572	-75.9677	-0.7093	213.9543	35.5119	671.4097	-51.6422	247.7006	27.6873	546.9928	-0.0592	0.0182	-0.0073	-0.0462	0.0165	0.9585
38.7854	-11.5865	242.9602	2.598	-91.4459	-7.6114	258.3482	34.7412	647.3907	-50.4503	238.3036	26.8577	527.0984	-0.0592	0.0182	-0.0073	-0.0462	0.0165	0.9585
38.7987	-17.956	277.0793	7.4972	-104.0447	-15.2695	294.4698	33.7232	617.6129	-48.4594	226.9081	25.5526	502.5582	-0.0592	0.0182	-0.0073	-0.0462	0.0165	0.9585
38.812	-23.1153	304.522	12.7081	-114.1187	-22.7487	323.1335	32.6341	582.7743	-45.9023	213.7708	23.8892	473.86	-0.0592	0.0182	-0.0073	-0.0462	0.0165	0.9585
38.8253	-27.0994	328.1996	17.4982	-122.807	-29.2887	347.4334	31.5748	543.8215	-43.0526	199.2277	22.0383	441.7541	-0.0592	0.0182	-0.0073	-0.0462	0.0165	0.9585
38.8386	-30.0656	351.0917	21.4791	-131.2492	-34.5374	370.5514	30.5891	501.7227	-40.0583	183.623	20.0943	407.0421	-0.0592	0.0182	-0.0073	-0.0462	0.0165	0.9585
38.8519	-32.132	375.2143	24.4275	-140.2056	-38.3237	394.6083	29.6122	457.4027	-36.9356	167.2858	18.0823	370.5303	-0.0592	0.0182	-0.0073	-0.0462	0.0165	0.9585
38.8651	-33.4514	401.5388	26.4999	-150.0116	-40.8731	420.6585	28.5118	411.6974	-33.6603	150.5118	16.0188	332.9529	-0.0592	0.0182	-0.0073	-0.0462	0.0165	0.9585
38.8784	-34.1678	430.3656	27.9681	-160.7322	-42.5372	449.0272	27.0985	365.4055	-30.2502	133.5756	13.9749	295.0162	-0.0592	0.0182	-0.0073	-0.0462	0.0165	0.9585
38.8917	-34.4386	461.5505	29.3436	-172.2491	-43.9017	479.6099	25.1796	319.3216	-26.7836	116.7479	12.0698	257.4053	-0.0592	0.0182	-0.0073	-0.0462	0.0165	0.9585
38.905	-34.4454	494.6049	31.0723	-184.3319	-45.4904	511.9018	22.6258	274.3032	-23.3777	100.322	10.4348	220.8322	-0.0592	0.0182	-0.0073	-0.0462	0.0165	0.9585
38.9183	-34.4183	528.933	33.5432	-196.7291	-47.7775	545.276	19.4141	231.2981	-20.1613	84.6259	9.1728	186.0586	-0.0592	0.0182	-0.0073	-0.0462	0.0165	0.9585
38.9316	-34.5428	564.0797	36.8295	-209.2723	-50.9008	579.2234	15.6845	191.2548	-17.2482	69.9962	8.3165	153.8062	-0.0592	0.0182	-0.0073	-0.0462	0.0165	0.9585
38.9449	-34.8701	599.7191	40.7973	-221.8711	-54.7458	613.3504	11.6832	155.0175	-14.7175	56.7364	7.83	124.7097	-0.0592	0.0182	-0.0073	-0.0462	0.0165	0.9585
38.9581	-35.3716	635.4344	45.0985	-234.4143	-58.954	647.1685	7.7337	123.1543	-12.5861	45.0563	7.6022	99.1671	-0.0592	0.0182	-0.0073	-0.0462	0.0165	0.9585
38.9714	-35.9263	670.4472	49.4466	-246.6548	-63.1943	679.8425	4.1162	95.8534	-10.8007	35.033	7.4886	77.2913	-0.0592	0.0182	-0.0073	-0.0462	0.0165	0.9585
38.9847	-36.4006	703.6535	53.5845	-258.2168	-67.158	710.2485	1.024	72.9462	-9.2488	26.6172	7.3397	58.9315	-0.0592	0.0182	-0.0073	-0.0462	0.0165	0.9585
38.998	-36.65	733.8262	57.3987	-268.6649	-70.677	737.1894	-1.4341	54.0409	-7.8227	19.6762	7.0441	43.7671	-0.0592	0.0182	-0.0073	-0.0462	0.0165	0.9585
39.0113	-36.5299	759.8408	60.7526	-277.5967	-73.5673	759.596	-3.2152	38.6646	-6.4386	14.041	6.5291	31.43	-0.0592	0.0182	-0.0073	-0.0462	0.0165	0.9585
39.0246	-35.927	780.7993	63.592	-284.6881	-75.7407	776.6625	-4.2786	26.3378	-5.0693	9.5378	5.7686	21.5416	-0.0592	0.0182	-0.0073	-0.0462	0.0165	0.9585
39.0379	-34.761	796.1111	65.8617	-289.728	-77.1225	787.8949	-4.6271	16.6754	-3.7346	6.022	4.7866	13.8033	-0.0592	0.0182	-0.0073	-0.0462	0.0165	0.9585
39.0511	-32.9915	805.5305	67.5861	-292.63	-77.7264	793.1584	-4.3204	9.3876	-2.5038	3.3821	3.6666	7.9693	-0.0592	0.0182	-0.0073	-0.0462	0.0165	0.9585
39.0644	-30.6079	809.163	68.7656	-293.4377	-77.557	792.6349	-3.5745	4.2627	-1.4614	1.534	2.5518	3.8644	-0.0592	0.0182	-0.0073	-0.0462	0.0165	0.9585
39.0777	-27.6823	807.4161	69.465	-292.3033	-76.703	786.8033	-2.6967	1.0235	-0.6763	0.36997	1.6017	1.2773	-0.0592	0.0182	-0.0073	-0.0462	0.0165	0.9585
39.091	-24.336	801.0227	69.7216	-289.5007	-75.2523	776.4454	-1.8572	-0.74984	-0.13914	-0.26291	0.8687	-0.13524	-0.0592	0.0182	-0.0073	-0.0462	0.0165	0.9585
39.1043	-20.7248	791.0829	69.603	-285.4392	-73.3362	762.6718	-1.1627	-1.4759	0.18305	-0.51835	0.36177	-0.70174	-0.0592	0.0182	-0.0073	-0.0462	0.0165	0.9585
39.1176	-17.0061	778.9729	69.1518	-280.6309	-71.0649	746.8217	-0.63653	-1.5331	0.34864	-0.53264	0.041881	-0.738	-0.0592	0.0182	-0.0073	-0.0462	0.0165	0.9585
39.1309	-13.3228	766.1558	68.4349	-275.6202	-68.5611	730.2849	-0.27717	-1.2046	0.40075	-0.40901	-0.12666	-0.46599	-0.0592	0.0182	-0.0073	-0.0462	0.0165	0.9585
39.1441	-9.7804	754.0104	67.4916	-270.9198	-65.9051	714.3327	-0.061939	-0.69489	0.38627	-0.21881	-0.19112	-0.046895	-0.0592	0.0182	-0.0073	-0.0462	0.0165	0.9585
39.1574	-6.4483	743.7009	66.375	-266.9618	-63.1716	700.0135	0.04576	-0.15063	0.32534	-0.0125	-0.17918	0.40366	-0.0592	0.0182	-0.0073	-0.0462	0.0165	0.9585
39.1707	-3.347	736.074	65.1243	-264.0606	-60.4045	688.0613	0.066544	0.34748	0.25107	0.18081	-0.12809	0.82651	-0.0592	0.0182	-0.0073	-0.0462	0.0165	0.9585
39.184	-0.46517	731.566	63.7969	-262.3773	-57.653	678.8283	0.032757	0.73907	0.16951	0.33796	-0.050527	1.1544	-0.0592	0.0182	-0.0073	-0.0462	0.0165	0.9585
39.1973	2.2476	730.2124	62.4394	-261.9206	-54.9437	672.3038	-0.047106	0.99986	0.09963	0.44491	0.036332	1.3633	-0.0592	0.0182	-0.0073	-0.0462	0.0165	0.9585
39.2106	4.8663	731.7257	61.0886	-262.5766	-52.2841	668.196	-0.15459	1.1093	0.035349	0.48919	0.13674	1.4221	-0.0592	0.0182	-0.0073	-0.0462	0.0165	0.9585
39.2239	7.4756	735.6003	59.7535	-264.1456	-49.6519	666.0337	-0.28074	1.0352	-0.01774	0.45616	0.24244	1.2897	-0.0592	0.0182	-0.0073	-0.0462	0.0165	0.9585
39.2371	10.1673	741.1928	58.4352	-266.3714	-47.0162	665.2405	-0.42241	0.72388	-0.07204	0.32552	0.36157	0.91515	-0.0592	0.0182	-0.0073	-0.0462	0.0165	0.9585
39.2504	12.9875	747.7632	57.1321	-268.9568	-44.3536	665.1983	-0.56243	0.10378	-0.12369	0.071835	0.47929	0.22287	-0.0592	0.0182	-0.0073	-0.0462	0.0165	0.9585
39.2637	15.9635	754.5089	55.863	-271.5789	-41.6654	665.2514	-0.69351	-0.88283	-0.17724	-0.32742	0.58797	-0.84611	-0.0592	0.0182	-0.0073	-0.0462	0.0165	0.9585
39.277	19.0705	760.6494	54.661	-273.9188	-38.9843	664.7982	-0.77604	-2.2745	-0.21764	-0.88686	0.65344	-2.3428	-0.0592	0.0182	-0.0073	-0.0462	0.0165	0.9585
39.2903	22.2737	765.4642	53.5822	-275.6822	-36.3745	663.3079	-0.75807	-4.047	-0.23376	-1.5975	0.64438	-4.2458	-0.0592	0.0182	-0.0073	-0.0462	0.0165	0.9585
39.3036	25.5315	768.3437	52.6918	-276.6204	-33.911	660.3556	-0.56126	-6.069	-0.19665	-2.4054	0.50358	-6.4185	-0.0592	0.0182	-0.0073	-0.0462	0.0165	0.9585
39.3169	28.7986	768.8638	52.0628	-276.5555	-31.6804	655.6754	-0.081903	-8.0239	-0.074984	-3.1834	0.16174	-8.521	-0.0592	0.0182	-0.0073	-0.0462	0.0165	0.9585
39.3301	32.0545	766.8077	51.7643	-275.3977	-29.7631	649.1593	0.79276	-9.3512	0.17958	-3.7053	-0.4734	-9.9498	-0.0592	0.0182	-0.0073	-0.0462	0.0165	0.9585
39.3434	35.2808	762.2384	51.8452	-273.1723	-28.2205	640.9165	2.1791	-9.1768	0.61279	-3.6187	-1.4963	-9.7751	-0.0592	0.0182	-0.0073	-0.0462	0.0165	0.9585
39.3567	38.4753	755.4966	52.3189	-270.0201	-27.0754	631.255	4.1479	-6.2538	1.2655	-2.4228	-2.9748	-6.6778	-0.0592	0.0182	-0.0073	-0.0462	0.0165	0.9585
39.37	41.6094	747.0911	53.1513	-266.1576	-26.3112	620.6038	6.6838	1.0157	2.1473	0.52532	-4.9046	1.0344	-0.0592	0.0182	-0.0073	-0.0462	0.0165	0.9585
39.3833	44.6154	737.5116	54.2372	-261.8039	-25.8605	609.3678	9.6035	14.4643	3.2242	5.9618	-7.162	15.3183	-0.0592	0.0182	-0.0073	-0.0462	0.0165	0.9585
39.3966	47.3699	726.9667	55.4051	-257.0833	-25.6186	597.7153	12.4714	35.8789	4.379	14.6026	-9.4307	38.0856	-0.0592	0.0182	-0.0073	-0.0462	0.0165	0.9585
39.4099	49.6812	715.1765	56.4206	-251.9465	-25.4565	585.433	14.4912	66.5092	5.3797	26.9436	-11.1339	70.682	-0.0592	0.0182	-0.0073	-0.0462	0.0165	0.9585
39.4231	51.3245	701.2797	57.0114	-246.1367	-25.228	571.8367	14.5015	106.4152	5.9173	42.9968	-11.4765	113.1967	-0.0592	0.0182	-0.0073	-0.0462	0.0165	0.9585
39.4364	52.0892	683.9527	56.8997	-239.2314	-24.7825	555.8834	11.3508	153.6755	5.6235	61.9772	-9.6129	163.5907	-0.0592	0.0182	-0.0073	-0.0462	0.0165	0.9585
39.4497	51.8361	661.7642	55.8425	-230.7688	-23.9801	536.4318	4.9463	204.0893	4.0331	82.1752	-5.0416	217.3715	-0.0592	0.0182	-0.0073	-0.0462	0.0165	0.9585
39.463	50.5424	633.6718	53.7114	-220.4171	-22.745	512.6195	-3.1463	252.3733	0.80008	101.4506	1.9301	268.779	-0.0592	0.0182	-0.0073	-0.0462	0.0165	0.9585
